# xmcd CD database file
#
# Track frame offsets:
#	150
#	18413
#	36495
#
# Disc length: 713 seconds
#
# Revision: 0
# Processed by: cddbd v1.5.1PL0 Copyright (c) Steve Scherf et al.
# Submitted via: CDex 1.51
#
DISCID=1f02c703
DTITLE=ゲントウキ - さらば！
DYEAR=2004
DGENRE=J-POP
TTITLE0=さらば！
TTITLE1=おぼえたてのメロディ
TTITLE2=ジャッカルの夜
EXTD=YEAR: 2004
EXTT0=
EXTT1=
EXTT2=
PLAYORDER=
